<?xml version="1.0" encoding="UTF-8"?>
<svg width="120px" height="200px" viewBox="0 0 120 200" version="1.1" xmlns="http://www.w3.org/2000/svg" xmlns:xlink="http://www.w3.org/1999/xlink">
    <!-- Generator: Sketch 53.2 (72643) - https://sketchapp.com -->
    <title>baltic ave</title>
    <desc>Created with Sketch.</desc>
    <g id="Page-1" stroke="none" stroke-width="1" fill="none" fill-rule="evenodd">
        <g id="brown-tiles" transform="translate(-46.000000, -42.000000)">
            <g id="baltic-ave" transform="translate(46.000000, 42.000000)">
                <g id="tile">
                    <rect id="Rectangle" fill="#000000" x="0" y="0" width="120" height="200"></rect>
                    <rect id="Rectangle" fill="#C7EAC0" x="5" y="5" width="110" height="190"></rect>
                </g>
                <rect id="Rectangle" fill="#000000" x="0" y="0" width="120" height="60"></rect>
                <rect id="Rectangle" fill="#613E0D" x="5" y="5" width="110" height="50"></rect>
                <text id="BALTIC-AVENUE" font-family="Helvetica" font-size="12" font-weight="normal" fill="#000000">
                    <tspan x="39.4365234" y="84">BALTIC </tspan>
                    <tspan x="35.7685547" y="98">AVENUE</tspan>
                </text>
                <text id="60" font-family="Helvetica" font-size="22" font-weight="normal" fill="#000000">
                    <tspan x="48.2646484" y="187">60</tspan>
                </text>
                <path d="M33.0454545,179.113636 L33.0454545,174 L35.0909091,174 L35.0909091,174.258191 L38.5655869,177.732868 L41.9090909,174.389364 L41.9090909,174 L43.9545455,174 L43.9545455,179.113636 L46,179.113636 L46,181.159091 L43.9545455,181.159091 L43.9545455,186.272727 L41.9090909,186.272727 L41.9090909,181.159091 L35.0909091,181.159091 L35.0909091,186.272727 L33.0454545,186.272727 L33.0454545,181.159091 L31,181.159091 L31,179.113636 L33.0454545,179.113636 Z M35.0909091,179.113636 L37.0536452,179.113636 L35.0909091,177.1509 L35.0909091,179.113636 Z M40.0775285,179.113636 L41.9090909,179.113636 L41.9090909,177.282074 L40.0775285,179.113636 Z" id="Combined-Shape" fill="#000000"></path>
            </g>
        </g>
    </g>
</svg>