<?xml version="1.0" encoding="UTF-8"?>
<svg width="149px" height="70px" viewBox="0 0 149 70" version="1.1" xmlns="http://www.w3.org/2000/svg" xmlns:xlink="http://www.w3.org/1999/xlink">
    <!-- Generator: Sketch 53.2 (72643) - https://sketchapp.com -->
    <title>car</title>
    <desc>Created with Sketch.</desc>
    <g id="Page-1" stroke="none" stroke-width="1" fill="none" fill-rule="evenodd">
        <g id="pieces" transform="translate(-280.000000, -99.000000)" fill="#000000">
            <path d="M399.00587,153 L313.993875,153 C313.997948,153.166021 314,153.332701 314,153.5 C314,162.060414 308.627417,169 302,169 C295.372583,169 290,162.060414 290,153.5 C290,153.332701 290.002052,153.166021 290.006125,153 L280,153 L280,132.75 L280.153517,132.75 C282.222411,123.040924 304.945327,115.392857 332.671975,115.392857 C333.596918,115.392857 334.516293,115.401368 335.429518,115.418183 C338.451459,108.082737 346.27457,102.857143 355.449045,102.857143 C355.927404,102.857143 356.402089,102.871349 356.872611,102.89932 L356.872611,102.857143 L363.002298,102.857143 C363.153089,114.566537 370.705471,124 380,124 C389.388841,124 397,114.374122 397,102.5 C397,101.308198 396.923325,100.139044 396.775872,99 L404.324841,99 L404.324841,99.1645429 C418.036375,100.532277 428.712425,110.261586 428.994286,122.142857 L429,153 L421.99413,153 C421.998033,153.166021 422,153.332701 422,153.5 C422,162.060414 416.851275,169 410.5,169 C404.148725,169 399,162.060414 399,153.5 C399,153.332701 399.001967,153.166021 399.00587,153 Z" id="car"></path>
        </g>
    </g>
</svg>