<?xml version="1.0" encoding="UTF-8"?>
<svg width="149px" height="70px" viewBox="0 0 149 70" version="1.1" xmlns="http://www.w3.org/2000/svg" xmlns:xlink="http://www.w3.org/1999/xlink">
    <!-- Generator: Sketch 53.2 (72643) - https://sketchapp.com -->
    <title>car</title>
    <desc>Created with Sketch.</desc>
    <g id="Page-1" stroke="none" stroke-width="1" fill="none" fill-rule="evenodd">
        <g id="pieces" transform="translate(-280.000000, -99.000000)" fill="#7D7D7D" stroke="#000000" stroke-width="3">
            <path d="M281.5,151.5 L280,151.5 L281.5,153 L281.5,151.5 Z M281.5,133.62848 L281.5,132.75 L280,132.75 L280,134.25 L281.367561,134.25 L281.5,133.62848 Z M358.372611,104.357143 L358.372611,102.857143 L356.872611,102.857143 L356.872611,104.357143 L358.372611,104.357143 Z M361.559335,104.357143 L363.002298,104.357143 L361.502422,102.876458 C361.508828,103.373891 361.527925,103.867618 361.559335,104.357143 Z M398.431197,100.5 C398.391946,99.93203 398.335972,99.3675718 398.263459,98.8074278 L396.775872,99 L396.775872,100.5 L398.431197,100.5 Z M402.824841,100.5 L404.324841,100.5 L404.324841,99 L402.824841,99 L402.824841,100.5 Z M427.499742,151.5 L427.5,153.000278 L429,151.5 L427.499742,151.5 Z" id="car"></path>
        </g>
    </g>
</svg>