<?xml version="1.0" encoding="UTF-8"?>
<svg width="120px" height="200px" viewBox="0 0 120 200" version="1.1" xmlns="http://www.w3.org/2000/svg" xmlns:xlink="http://www.w3.org/1999/xlink">
    <!-- Generator: Sketch 53.2 (72643) - https://sketchapp.com -->
    <title>chance orange</title>
    <desc>Created with Sketch.</desc>
    <g id="Page-1" stroke="none" stroke-width="1" fill="none" fill-rule="evenodd">
        <g id="chance" transform="translate(-191.000000, -27.000000)">
            <g id="chance-orange" transform="translate(191.000000, 27.000000)">
                <rect id="Rectangle" fill="#000000" x="0" y="0" width="120" height="200"></rect>
                <rect id="Rectangle" fill="#C7EAC0" x="5" y="5" width="110" height="190"></rect>
                <text id="CHANCE" font-family="Helvetica" font-size="12" font-weight="normal" fill="#000000">
                    <tspan x="35.1640625" y="27">CHANCE</tspan>
                </text>
                <path d="M67.7275424,137.997304 L64.827861,152.720758 C63.7088179,152.90443 62.5595944,153 61.3877551,153 C49.8912154,153 40.5714286,143.801487 40.5714286,132.454545 C40.5714286,127.432735 42.3968744,122.831733 45.4285714,119.262676 L45.4285714,119.054652 L73.22757,89.6317883 L74.1178038,88.6559491 C74.2035323,88.577822 74.288594,88.4989927 74.3729794,88.4194703 L74.4959236,88.2893444 L74.5030127,88.2958691 C75.298902,87.5327961 76.0331891,86.7074694 76.6978071,85.8278508 L76.8025829,85.7129997 L76.7913737,85.7030382 C79.321771,82.3009104 80.8163265,78.101508 80.8163265,73.5575758 C80.8163265,62.2106345 71.4965397,53.0121212 60,53.0121212 C48.5034603,53.0121212 39.1836735,62.2106345 39.1836735,73.5575758 C39.1836735,78.5980974 41.022748,83.2146695 44.0747553,86.7892979 L35.201782,96.5155025 C29.4951287,90.5131696 26,82.438227 26,73.5575758 C26,55.0242384 41.2223185,40 60,40 C78.7776815,40 94,55.0242384 94,73.5575758 C94,82.9521045 90.0886783,91.4449825 83.7856081,97.5364099 L83.0932031,98.2692613 L83.03112,98.2121212 L56.0573889,126.76151 L56.3247293,127.007565 C54.7447075,128.446577 53.755102,130.50771 53.755102,132.79697 C53.755102,137.14663 57.327687,140.672727 61.7346939,140.672727 C64.1224181,140.672727 66.2651984,139.637644 67.7275424,137.997304 Z M60,177 C54.4771525,177 50,172.522847 50,167 C50,161.477153 54.4771525,157 60,157 C65.5228475,157 70,161.477153 70,167 C70,172.522847 65.5228475,177 60,177 Z" id="Combined-Shape" fill="#FF7727"></path>
            </g>
        </g>
    </g>
</svg>