<?xml version="1.0" encoding="UTF-8"?>
<svg width="134px" height="92px" viewBox="0 0 134 92" version="1.1" xmlns="http://www.w3.org/2000/svg" xmlns:xlink="http://www.w3.org/1999/xlink">
    <!-- Generator: Sketch 53.2 (72643) - https://sketchapp.com -->
    <title>dog</title>
    <desc>Created with Sketch.</desc>
    <g id="Page-1" stroke="none" stroke-width="1" fill="none" fill-rule="evenodd">
        <g id="pieces" transform="translate(-611.000000, -77.000000)" fill="#7D7D7D" stroke="#000000" stroke-width="3">
            <path d="M627.5,167.5 L627.5,169 L629,167.5 L627.5,167.5 Z M612.5,167.5 L611,167.5 L612.5,169 L612.5,167.5 Z M612.5,110.867223 L612.5,109.641304 L611,109.641304 L611,111.141304 L612.343862,111.141304 L612.5,110.867223 Z M624.289208,90.1727008 L626.879383,85.6259642 L624.077267,84.9442309 L624.289208,90.1727008 Z M707.438227,94.1405442 L708.760486,93.35466 L707.994106,92.0652174 L706.685814,92.798956 L707.438227,94.1405442 Z M711.211429,89.7282609 L708.562186,89.7282609 L708.562186,91.2282609 L709.848436,91.9999869 L711.211429,89.7282609 Z M717.098878,79.9155426 L718.385128,77.771726 L715.812628,77.771726 L717.098878,79.9155426 Z M739.63464,107.191247 L740.668014,108.218548 L740.631548,106.128523 L739.63464,107.191247 Z M742.916301,126.264463 L743.83731,127.394396 L744.01946,125.311548 L742.916301,126.264463 Z M722.143608,144.208038 L720.975561,145.217004 L723.118791,145.404434 L722.143608,144.208038 Z M701.5,143.5 L703,143.5 L703,142 L701.5,142 L701.5,143.5 Z M701.5,167.5 L701.5,169 L703,167.5 L701.5,167.5 Z M686.5,167.5 L685,167.5 L686.5,169 L686.5,167.5 Z" id="dog"></path>
        </g>
    </g>
</svg>