<?xml version="1.0" encoding="UTF-8"?>
<svg width="120px" height="200px" viewBox="0 0 120 200" version="1.1" xmlns="http://www.w3.org/2000/svg" xmlns:xlink="http://www.w3.org/1999/xlink">
    <!-- Generator: Sketch 53.2 (72643) - https://sketchapp.com -->
    <title>electric company</title>
    <desc>Created with Sketch.</desc>
    <g id="Page-1" stroke="none" stroke-width="1" fill="none" fill-rule="evenodd">
        <g id="utilities" transform="translate(-168.000000, -25.000000)">
            <g id="electric-company" transform="translate(168.000000, 25.000000)">
                <rect id="Rectangle" fill="#000000" x="0" y="0" width="120" height="200"></rect>
                <rect id="Rectangle" fill="#C7EAC0" x="5" y="5" width="110" height="190"></rect>
                <text id="ELECTRIC-COMPANY" font-family="Helvetica" font-size="12" font-weight="normal" fill="#000000">
                    <tspan x="28.6611328" y="29"> ELECTRIC </tspan>
                    <tspan x="30.1054688" y="43">COMPANY</tspan>
                </text>
                <text id="150" font-family="Helvetica" font-size="22" font-weight="normal" fill="#000000">
                    <tspan x="42.1469727" y="187">150</tspan>
                </text>
                <path d="M27.0454545,180.113636 L27.0454545,175 L29.0909091,175 L29.0909091,175.258191 L32.5655869,178.732868 L35.9090909,175.389364 L35.9090909,175 L37.9545455,175 L37.9545455,180.113636 L40,180.113636 L40,182.159091 L37.9545455,182.159091 L37.9545455,187.272727 L35.9090909,187.272727 L35.9090909,182.159091 L29.0909091,182.159091 L29.0909091,187.272727 L27.0454545,187.272727 L27.0454545,182.159091 L25,182.159091 L25,180.113636 L27.0454545,180.113636 Z M29.0909091,180.113636 L31.0536452,180.113636 L29.0909091,178.1509 L29.0909091,180.113636 Z M34.0775285,180.113636 L35.9090909,180.113636 L35.9090909,178.282074 L34.0775285,180.113636 Z" id="Combined-Shape" fill="#000000"></path>
                <g id="light" transform="translate(33.000000, 52.000000)">
                    <path d="M36.5431034,88.490566 L36.8780488,88.490566 L36.8780488,105 L17.1219512,105 L17.1219512,88.490566 L17.4568966,88.490566 L4.56114026,51.9030255 C2.7808656,48.6248601 1.45899541,44.9350081 0.708875136,40.9734682 L0,38.9622642 L0.380826257,38.9622642 C0.130402279,37.1373618 0,35.2620187 0,33.3490566 C0,14.9308812 12.0883118,0 27,0 C41.9116882,0 54,14.9308812 54,33.3490566 C54,35.2620187 53.8695977,37.1373618 53.6191737,38.9622642 L54,38.9622642 L53.2911251,40.9734675 C52.5410046,44.9350081 51.2191344,48.6248601 49.4388597,51.9030255 L36.5431034,88.490566 Z" id="Combined-Shape" fill="#000000"></path>
                    <path d="M35.5818966,79 L19.4181034,79 L8.80095022,48.6207856 C7.317388,45.8657217 6.21582951,42.7646647 5.59072928,39.4352734 L5,37.745 L5.31735521,37.745 C5.10866857,36.2112999 5,34.635208 5,33.0275 C5,17.5483392 15.0735931,5 27.5,5 C39.9264069,5 50,17.5483392 50,33.0275 C50,34.635208 49.8913314,36.2112999 49.6826448,37.745 L50,37.745 L49.4092709,39.4352728 C48.7841705,42.7646647 47.682612,45.8657217 46.1990498,48.6207856 L35.5818966,79 Z" id="Combined-Shape" fill="#FFE08A"></path>
                    <path d="M28,50 L27,50 L27,79 L24,79 L24,50 L18,50 L18,49.9432185 C17.6710938,49.9807726 17.3374994,50 17,50 C11.4771525,50 7,44.8512746 7,38.5 C7,32.1487254 11.4771525,27 17,27 C22.5228475,27 27,32.1487254 27,38.5 C27,39.0083793 26.9713149,39.5090539 26.9157046,40 L27,40 L27,46 L28,46 L28,40 L28.0842954,40 C28.0286851,39.5090539 28,39.0083793 28,38.5 C28,32.1487254 32.4771525,27 38,27 C43.5228475,27 48,32.1487254 48,38.5 C48,44.8512746 43.5228475,50 38,50 L31,50 L31,79 L28,79 L28,50 Z M36.6108981,46 L38,46 L38,46.1666667 C41.6818983,46.1666667 44.6666667,42.7341831 44.6666667,38.5 C44.6666667,34.2658169 41.6818983,30.8333333 38,30.8333333 C34.3181017,30.8333333 31.3333333,34.2658169 31.3333333,38.5 C31.3333333,42.1863757 33.5957394,45.2650762 36.6108981,46 Z M17,45.4 C20.3137085,45.4 23,42.3107648 23,38.5 C23,34.6892352 20.3137085,31.6 17,31.6 C13.6862915,31.6 11,34.6892352 11,38.5 C11,42.3107648 13.6862915,45.4 17,45.4 Z" id="Combined-Shape" fill="#000000"></path>
                </g>
            </g>
        </g>
    </g>
</svg>