<?xml version="1.0" encoding="UTF-8"?>
<svg width="200px" height="200px" viewBox="0 0 200 200" version="1.1" xmlns="http://www.w3.org/2000/svg" xmlns:xlink="http://www.w3.org/1999/xlink">
    <!-- Generator: Sketch 53.2 (72643) - https://sketchapp.com -->
    <title>free parking</title>
    <desc>Created with Sketch.</desc>
    <g id="Page-1" stroke="none" stroke-width="1" fill="none" fill-rule="evenodd">
        <g id="Artboard" transform="translate(-52.000000, -49.000000)">
            <g id="free-parking" transform="translate(52.000000, 49.000000)">
                <rect id="Rectangle" fill="#000000" x="0" y="0" width="200" height="200"></rect>
                <rect id="Rectangle" fill="#C7EAC0" x="5" y="5" width="190" height="190"></rect>
                <g id="car" transform="translate(99.495735, 104.555339) rotate(135.000000) translate(-99.495735, -104.555339) translate(21.495735, 65.555339)">
                    <path d="M28.6611657,25.8630137 C31.6565295,11.2865429 52.4232191,0 77.5958549,0 C102.768491,0 123.53518,11.2865429 126.530544,25.8630137 L156,25.8630137 L156,59 L0,59 L0,25.8630137 L28.6611657,25.8630137 Z" id="Combined-Shape" fill="#FF0707"></path>
                    <ellipse id="Oval" fill="#000000" cx="33" cy="56.5" rx="18" ry="18.5"></ellipse>
                    <ellipse id="Oval" fill="#000000" cx="122" cy="59.5" rx="18" ry="18.5"></ellipse>
                    <circle id="Oval" fill="#FFFFFF" cx="122.5" cy="59.5" r="13.5"></circle>
                    <circle id="Oval" fill="#FFFFFF" cx="32.5" cy="56.5" r="13.5"></circle>
                    <path d="M65,6 L65,26 L37.0048842,26 C37.0016328,25.8768172 37,25.7533571 37,25.6296296 C37,14.7884845 49.536027,6 65,6 Z" id="Combined-Shape" fill="#000000"></path>
                    <path d="M63,8 L63,23 L40.0040837,23 C40.0013652,22.9075993 40,22.8149905 40,22.7221811 C40,14.6764017 50.2600953,8.13784526 63,8 Z" id="Combined-Shape" fill="#FFFDFD"></path>
                    <rect id="Rectangle" fill="#FFFFFF" x="2" y="33" width="12" height="10"></rect>
                    <rect id="Rectangle" fill="#FFFFFF" x="141" y="33" width="12" height="10"></rect>
                    <rect id="Rectangle" fill="#FFFFFF" x="141" y="46" width="12" height="6"></rect>
                    <rect id="Rectangle" fill="#FFFFFF" x="2" y="46" width="12" height="6"></rect>
                </g>
                <text id="PARKING" transform="translate(52.941125, 55.941125) rotate(135.000000) translate(-52.941125, -55.941125) " font-family="Helvetica" font-size="17" font-weight="normal" fill="#000000">
                    <tspan x="15.3095337" y="61.9411255">PARKING</tspan>
                </text>
                <text id="FREE" transform="translate(151.334524, 159.334524) rotate(135.000000) translate(-151.334524, -159.334524) " font-family="Helvetica" font-size="17" font-weight="normal" fill="#000000">
                    <tspan x="128.66509" y="165.334524">FREE</tspan>
                </text>
            </g>
        </g>
    </g>
</svg>