<?xml version="1.0" encoding="UTF-8"?>
<svg width="120px" height="200px" viewBox="0 0 120 200" version="1.1" xmlns="http://www.w3.org/2000/svg" xmlns:xlink="http://www.w3.org/1999/xlink">
    <!-- Generator: Sketch 53.2 (72643) - https://sketchapp.com -->
    <title>income tax</title>
    <desc>Created with Sketch.</desc>
    <g id="Page-1" stroke="none" stroke-width="1" fill="none" fill-rule="evenodd">
        <g id="taxes" transform="translate(-34.000000, -23.000000)">
            <g id="income-tax" transform="translate(34.000000, 23.000000)">
                <rect id="Rectangle" fill="#000000" x="0" y="0" width="120" height="200"></rect>
                <rect id="Rectangle" fill="#C7EAC0" x="5" y="5" width="110" height="190"></rect>
                <text id="INCOME-TAX" font-family="Helvetica" font-size="18" font-weight="normal" fill="#000000">
                    <tspan x="24.5" y="33">INCOME </tspan>
                    <tspan x="43.6601562" y="55">TAX</tspan>
                </text>
                <text id="200" font-family="Helvetica" font-size="22" font-weight="normal" fill="#000000">
                    <tspan x="71.1469727" y="188">200</tspan>
                </text>
                <text id="PAY" font-family="Helvetica" font-size="20" font-weight="normal" fill="#000000">
                    <tspan x="13.9648438" y="188">PAY</tspan>
                </text>
                <path d="M57.0454545,181.113636 L57.0454545,176 L59.0909091,176 L59.0909091,176.258191 L62.5655869,179.732868 L65.9090909,176.389364 L65.9090909,176 L67.9545455,176 L67.9545455,181.113636 L70,181.113636 L70,183.159091 L67.9545455,183.159091 L67.9545455,188.272727 L65.9090909,188.272727 L65.9090909,183.159091 L59.0909091,183.159091 L59.0909091,188.272727 L57.0454545,188.272727 L57.0454545,183.159091 L55,183.159091 L55,181.113636 L57.0454545,181.113636 Z M59.0909091,181.113636 L61.0536452,181.113636 L59.0909091,179.1509 L59.0909091,181.113636 Z M64.0775285,181.113636 L65.9090909,181.113636 L65.9090909,179.282074 L64.0775285,181.113636 Z" id="Combined-Shape" fill="#000000"></path>
                <path d="M60,87 L73,100 L60,113 L47,100 L60,87 Z M59.8513035,90.3179702 L50.3179702,99.8513035 L59.8513035,109.384637 L69.3846368,99.8513035 L59.8513035,90.3179702 Z M53.7410846,99.8077513 L59.8077513,93.7410846 L65.874418,99.8077513 L59.8077513,105.874418 L53.7410846,99.8077513 Z" id="Combined-Shape" fill="#000000"></path>
            </g>
        </g>
    </g>
</svg>