<?xml version="1.0" encoding="UTF-8"?>
<svg width="200px" height="200px" viewBox="0 0 200 200" version="1.1" xmlns="http://www.w3.org/2000/svg" xmlns:xlink="http://www.w3.org/1999/xlink">
    <!-- Generator: Sketch 53.2 (72643) - https://sketchapp.com -->
    <title>jail</title>
    <desc>Created with Sketch.</desc>
    <g id="Page-1" stroke="none" stroke-width="1" fill="none" fill-rule="evenodd">
        <g id="Artboard" transform="translate(-52.000000, -289.000000)">
            <g id="jail" transform="translate(52.000000, 289.000000)">
                <rect id="Rectangle" fill="#000000" x="0" y="0" width="200" height="200"></rect>
                <rect id="Rectangle" fill="#C7EAC0" x="5" y="5" width="190" height="190"></rect>
                <rect id="Rectangle" fill="#000000" x="62" y="0" width="138" height="138"></rect>
                <rect id="Rectangle" fill="#FF8921" x="67" y="5" width="128" height="128"></rect>
                <rect id="Rectangle" fill="#000000" transform="translate(131.518290, 68.518290) rotate(45.000000) translate(-131.518290, -68.518290) " x="88.01829" y="25.01829" width="87" height="87"></rect>
                <rect id="Rectangle" fill="#FFFFFF" transform="translate(131.447222, 68.447222) rotate(45.000000) translate(-131.447222, -68.447222) " x="92.9472222" y="29.9472222" width="77" height="77"></rect>
                <text id="IN" transform="translate(174.000000, 24.000000) rotate(45.000000) translate(-174.000000, -24.000000) " font-family="Helvetica" font-size="17" font-weight="normal" fill="#000000">
                    <tspan x="165.5" y="30">IN</tspan>
                </text>
                <text id="VISITING" font-family="Helvetica" font-size="17" font-weight="normal" fill="#000000">
                    <tspan x="88.1342773" y="174">VISITING</tspan>
                </text>
                <text id="JAIL" transform="translate(89.445436, 110.445436) rotate(45.000000) translate(-89.445436, -110.445436) " font-family="Helvetica" font-size="17" font-weight="normal" fill="#000000">
                    <tspan x="72.4371357" y="116.445436">JAIL</tspan>
                </text>
                <text id="JUST" transform="translate(31.000000, 78.500000) rotate(90.000000) translate(-31.000000, -78.500000) " font-family="Helvetica" font-size="17" font-weight="normal" fill="#000000">
                    <tspan x="9.75" y="84.5">JUST</tspan>
                </text>
                <rect id="Rectangle" fill="#000000" transform="translate(145.819805, 82.819805) rotate(45.000000) translate(-145.819805, -82.819805) " x="143.319805" y="40.3198052" width="5" height="85"></rect>
                <rect id="Rectangle" fill="#000000" transform="translate(116.819805, 53.819805) rotate(45.000000) translate(-116.819805, -53.819805) " x="114.319805" y="11.3198052" width="5" height="85"></rect>
                <rect id="Rectangle" fill="#000000" transform="translate(131.819805, 67.819805) rotate(45.000000) translate(-131.819805, -67.819805) " x="129.319805" y="25.3198052" width="5" height="85"></rect>
            </g>
        </g>
    </g>
</svg>