<?xml version="1.0" encoding="UTF-8"?>
<svg width="15px" height="13px" viewBox="0 0 15 13" version="1.1" xmlns="http://www.w3.org/2000/svg" xmlns:xlink="http://www.w3.org/1999/xlink">
    <!-- Generator: Sketch 53.2 (72643) - https://sketchapp.com -->
    <title>monopoly money</title>
    <desc>Created with Sketch.</desc>
    <g id="Page-1" stroke="none" stroke-width="1" fill="none" fill-rule="evenodd">
        <g id="monopoly-m" transform="translate(-23.000000, -45.000000)" fill="#000000">
            <path d="M25.0454545,50.1136364 L25.0454545,45 L27.0909091,45 L27.0909091,45.2581907 L30.5655869,48.7328685 L33.9090909,45.3893644 L33.9090909,45 L35.9545455,45 L35.9545455,50.1136364 L38,50.1136364 L38,52.1590909 L35.9545455,52.1590909 L35.9545455,57.2727273 L33.9090909,57.2727273 L33.9090909,52.1590909 L27.0909091,52.1590909 L27.0909091,57.2727273 L25.0454545,57.2727273 L25.0454545,52.1590909 L23,52.1590909 L23,50.1136364 L25.0454545,50.1136364 Z M27.0909091,50.1136364 L29.0536452,50.1136364 L27.0909091,48.1509002 L27.0909091,50.1136364 Z M32.0775285,50.1136364 L33.9090909,50.1136364 L33.9090909,48.282074 L32.0775285,50.1136364 Z" id="monopoly-money"></path>
        </g>
    </g>
</svg>