<?xml version="1.0" encoding="UTF-8"?>
<svg width="1080px" height="1080px" viewBox="0 0 1080 1080" version="1.1" xmlns="http://www.w3.org/2000/svg" xmlns:xlink="http://www.w3.org/1999/xlink">
    <!-- Generator: Sketch 53.2 (72643) - https://sketchapp.com -->
    <title>monopoly board</title>
    <desc>Created with Sketch.</desc>
    <g id="Page-1" stroke="none" stroke-width="1" fill="none" fill-rule="evenodd">
        <g id="monopoly-board" transform="translate(-80.000000, -57.000000)">
            <g transform="translate(80.000000, 57.000000)">
                <g id="board">
                    <rect id="Rectangle" fill="#000000" x="0" y="0" width="1080" height="1080"></rect>
                    <rect id="Rectangle" fill="#C7EAC0" x="5" y="5" width="1070" height="1070"></rect>
                </g>
                <g id="title" transform="translate(540.000000, 544.000000) rotate(-45.000000) translate(-540.000000, -544.000000) translate(90.000000, 454.000000)">
                    <g id="head-base">
                        <rect id="Rectangle" fill="#000000" x="0" y="0" width="900" height="180"></rect>
                        <rect id="Rectangle" fill="#FF0000" x="6" y="5" width="890" height="170"></rect>
                    </g>
                    <path d="M84.7683741,139.673042 L60.2572943,139.673042 L39.3602004,87.9509196 L39.3602004,156.129212 L20,156.129212 L20,39.96801 L39.3602004,39.96801 L39.3602004,40.5717443 L40.8544953,39.96801 L72.5128342,118.325149 L104.171173,39.96801 L105.184882,40.3775749 L105.184882,39.96801 L124.545082,39.96801 L124.545082,156.129212 L105.184882,156.129212 L105.184882,89.1404124 L84.7683741,139.673042 Z M287.170765,41.5740627 L287.922846,41.0474506 L335.571266,109.096448 L335.571266,39.96801 L354.931467,39.96801 L354.931467,156.129212 L335.571266,156.129212 L335.571266,142.849927 L287.170765,73.7268481 L287.170765,156.129212 L267.810565,156.129212 L267.810565,39.96801 L287.170765,39.96801 L287.170765,41.5740627 Z M736.327415,136.769012 L786.663936,136.769012 L786.663936,156.129212 L736.327415,156.129212 L716.967214,156.129212 L716.967214,39.96801 L736.327415,39.96801 L736.327415,136.769012 Z M818.819845,155.704452 L797.627467,155.704452 L822.432953,99.9904175 L786.663936,55.8193593 L801.709637,43.6355904 L831.270715,80.1404808 L849.587637,39 L867.27406,46.8745029 L844.944878,97.0266664 L845.571205,97.800116 L844.053225,99.0293521 L818.819845,155.704452 Z M517.55715,117.408812 L517.55715,156.129212 L498.19695,156.129212 L498.19695,39.96801 L517.55715,39.96801 L535.949341,39.96801 L535.949341,39.9798739 C556.886727,40.4936169 573.701731,57.6273365 573.701731,78.6884108 C573.701731,99.7494851 556.886727,116.883205 535.949341,117.396948 L535.949341,117.408812 L517.55715,117.408812 Z M517.55715,98.0486112 L534.981331,98.0486112 C545.673674,98.0486112 554.341531,89.3807542 554.341531,78.6884108 C554.341531,67.9960674 545.673674,59.3282104 534.981331,59.3282104 L517.55715,59.3282104 L517.55715,98.0486112 Z M196.177824,156.129212 C164.100793,156.129212 138.097222,130.125642 138.097222,98.0486112 C138.097222,65.9715809 164.100793,39.96801 196.177824,39.96801 C228.254854,39.96801 254.258425,65.9715809 254.258425,98.0486112 C254.258425,130.125642 228.254854,156.129212 196.177824,156.129212 Z M196.177824,136.769012 C217.56251,136.769012 234.898224,119.433298 234.898224,98.0486112 C234.898224,76.6639243 217.56251,59.3282104 196.177824,59.3282104 C174.793137,59.3282104 157.457423,76.6639243 157.457423,98.0486112 C157.457423,119.433298 174.793137,136.769012 196.177824,136.769012 Z M426.564208,156.129212 C394.487178,156.129212 368.483607,130.125642 368.483607,98.0486112 C368.483607,65.9715809 394.487178,39.96801 426.564208,39.96801 C458.641239,39.96801 484.64481,65.9715809 484.64481,98.0486112 C484.64481,130.125642 458.641239,156.129212 426.564208,156.129212 Z M426.564208,136.769012 C447.948895,136.769012 465.284609,119.433298 465.284609,98.0486112 C465.284609,76.6639243 447.948895,59.3282104 426.564208,59.3282104 C405.179522,59.3282104 387.843808,76.6639243 387.843808,98.0486112 C387.843808,119.433298 405.179522,136.769012 426.564208,136.769012 Z M645.334473,156.129212 C613.257443,156.129212 587.253872,130.125642 587.253872,98.0486112 C587.253872,65.9715809 613.257443,39.96801 645.334473,39.96801 C677.411503,39.96801 703.415074,65.9715809 703.415074,98.0486112 C703.415074,130.125642 677.411503,156.129212 645.334473,156.129212 Z M645.334473,136.769012 C666.71916,136.769012 684.054874,119.433298 684.054874,98.0486112 C684.054874,76.6639243 666.71916,59.3282104 645.334473,59.3282104 C623.949786,59.3282104 606.614072,76.6639243 606.614072,98.0486112 C606.614072,119.433298 623.949786,136.769012 645.334473,136.769012 Z" id="monopoly" fill="#000000"></path>
                    <path d="M90.7683741,131.673042 L66.2572943,131.673042 L45.3602004,79.9509196 L45.3602004,148.129212 L26,148.129212 L26,31.96801 L45.3602004,31.96801 L45.3602004,32.5717443 L46.8544953,31.96801 L78.5128342,110.325149 L110.171173,31.96801 L111.184882,32.3775749 L111.184882,31.96801 L130.545082,31.96801 L130.545082,148.129212 L111.184882,148.129212 L111.184882,81.1404124 L90.7683741,131.673042 Z M293.170765,33.5740627 L293.922846,33.0474506 L341.571266,101.096448 L341.571266,31.96801 L360.931467,31.96801 L360.931467,148.129212 L341.571266,148.129212 L341.571266,134.849927 L293.170765,65.7268481 L293.170765,148.129212 L273.810565,148.129212 L273.810565,31.96801 L293.170765,31.96801 L293.170765,33.5740627 Z M742.327415,128.769012 L792.663936,128.769012 L792.663936,148.129212 L742.327415,148.129212 L722.967214,148.129212 L722.967214,31.96801 L742.327415,31.96801 L742.327415,128.769012 Z M824.819845,147.704452 L803.627467,147.704452 L828.432953,91.9904175 L792.663936,47.8193593 L807.709637,35.6355904 L837.270715,72.1404808 L855.587637,31 L873.27406,38.8745029 L850.944878,89.0266664 L851.571205,89.800116 L850.053225,91.0293521 L824.819845,147.704452 Z M523.55715,109.408812 L523.55715,148.129212 L504.19695,148.129212 L504.19695,31.96801 L523.55715,31.96801 L541.949341,31.96801 L541.949341,31.9798739 C562.886727,32.4936169 579.701731,49.6273365 579.701731,70.6884108 C579.701731,91.7494851 562.886727,108.883205 541.949341,109.396948 L541.949341,109.408812 L523.55715,109.408812 Z M523.55715,90.0486112 L540.981331,90.0486112 C551.673674,90.0486112 560.341531,81.3807542 560.341531,70.6884108 C560.341531,59.9960674 551.673674,51.3282104 540.981331,51.3282104 L523.55715,51.3282104 L523.55715,90.0486112 Z M202.177824,148.129212 C170.100793,148.129212 144.097222,122.125642 144.097222,90.0486112 C144.097222,57.9715809 170.100793,31.96801 202.177824,31.96801 C234.254854,31.96801 260.258425,57.9715809 260.258425,90.0486112 C260.258425,122.125642 234.254854,148.129212 202.177824,148.129212 Z M202.177824,128.769012 C223.56251,128.769012 240.898224,111.433298 240.898224,90.0486112 C240.898224,68.6639243 223.56251,51.3282104 202.177824,51.3282104 C180.793137,51.3282104 163.457423,68.6639243 163.457423,90.0486112 C163.457423,111.433298 180.793137,128.769012 202.177824,128.769012 Z M432.564208,148.129212 C400.487178,148.129212 374.483607,122.125642 374.483607,90.0486112 C374.483607,57.9715809 400.487178,31.96801 432.564208,31.96801 C464.641239,31.96801 490.64481,57.9715809 490.64481,90.0486112 C490.64481,122.125642 464.641239,148.129212 432.564208,148.129212 Z M432.564208,128.769012 C453.948895,128.769012 471.284609,111.433298 471.284609,90.0486112 C471.284609,68.6639243 453.948895,51.3282104 432.564208,51.3282104 C411.179522,51.3282104 393.843808,68.6639243 393.843808,90.0486112 C393.843808,111.433298 411.179522,128.769012 432.564208,128.769012 Z M651.334473,148.129212 C619.257443,148.129212 593.253872,122.125642 593.253872,90.0486112 C593.253872,57.9715809 619.257443,31.96801 651.334473,31.96801 C683.411503,31.96801 709.415074,57.9715809 709.415074,90.0486112 C709.415074,122.125642 683.411503,148.129212 651.334473,148.129212 Z M651.334473,128.769012 C672.71916,128.769012 690.054874,111.433298 690.054874,90.0486112 C690.054874,68.6639243 672.71916,51.3282104 651.334473,51.3282104 C629.949786,51.3282104 612.614072,68.6639243 612.614072,90.0486112 C612.614072,111.433298 629.949786,128.769012 651.334473,128.769012 Z" id="monopoly" fill="#FFFFFF"></path>
                </g>
            </g>
        </g>
    </g>
</svg>