<?xml version="1.0" encoding="UTF-8"?>
<svg width="120px" height="200px" viewBox="0 0 120 200" version="1.1" xmlns="http://www.w3.org/2000/svg" xmlns:xlink="http://www.w3.org/1999/xlink">
    <!-- Generator: Sketch 53.2 (72643) - https://sketchapp.com -->
    <title>north carolina ave</title>
    <desc>Created with Sketch.</desc>
    <g id="Page-1" stroke="none" stroke-width="1" fill="none" fill-rule="evenodd">
        <g id="green-tiles" transform="translate(-206.000000, -33.000000)">
            <g id="north-carolina-ave" transform="translate(206.000000, 33.000000)">
                <g id="tile">
                    <rect id="Rectangle" fill="#000000" x="0" y="0" width="120" height="200"></rect>
                    <rect id="Rectangle" fill="#C7EAC0" x="5" y="5" width="110" height="190"></rect>
                </g>
                <rect id="Rectangle" fill="#000000" x="0" y="0" width="120" height="60"></rect>
                <rect id="Rectangle" fill="#2DA200" x="5" y="5" width="110" height="50"></rect>
                <text id="NORTH-CAROLINA-AVENU" font-family="Helvetica" font-size="12" font-weight="normal" fill="#000000">
                    <tspan x="38.7744141" y="84">NORTH </tspan>
                    <tspan x="29.6542969" y="98">CAROLINA </tspan>
                    <tspan x="35.7685547" y="112">AVENUE</tspan>
                </text>
                <text id="300" font-family="Helvetica" font-size="22" font-weight="normal" fill="#000000">
                    <tspan x="42.1469727" y="187">300</tspan>
                </text>
                <path d="M26.0454545,179.113636 L26.0454545,174 L28.0909091,174 L28.0909091,174.258191 L31.5655869,177.732868 L34.9090909,174.389364 L34.9090909,174 L36.9545455,174 L36.9545455,179.113636 L39,179.113636 L39,181.159091 L36.9545455,181.159091 L36.9545455,186.272727 L34.9090909,186.272727 L34.9090909,181.159091 L28.0909091,181.159091 L28.0909091,186.272727 L26.0454545,186.272727 L26.0454545,181.159091 L24,181.159091 L24,179.113636 L26.0454545,179.113636 Z M28.0909091,179.113636 L30.0536452,179.113636 L28.0909091,177.1509 L28.0909091,179.113636 Z M33.0775285,179.113636 L34.9090909,179.113636 L34.9090909,177.282074 L33.0775285,179.113636 Z" id="Combined-Shape" fill="#000000"></path>
            </g>
        </g>
    </g>
</svg>