<?xml version="1.0" encoding="UTF-8"?>
<svg width="120px" height="200px" viewBox="0 0 120 200" version="1.1" xmlns="http://www.w3.org/2000/svg" xmlns:xlink="http://www.w3.org/1999/xlink">
    <!-- Generator: Sketch 53.2 (72643) - https://sketchapp.com -->
    <title>pennsylvania railroad</title>
    <desc>Created with Sketch.</desc>
    <g id="Page-1" stroke="none" stroke-width="1" fill="none" fill-rule="evenodd">
        <g id="Artboard" transform="translate(-150.000000, -17.000000)">
            <g id="pennsylvania-railroad" transform="translate(150.000000, 17.000000)">
                <rect id="Rectangle" fill="#000000" x="0" y="0" width="120" height="200"></rect>
                <rect id="Rectangle" fill="#C7EAC0" x="5" y="5" width="110" height="190"></rect>
                <text id="PENNSYLVANIA-RAILROA" font-family="Helvetica" font-size="12" font-weight="normal" fill="#000000">
                    <tspan x="13.0292969" y="29"> PENNSYLVANIA </tspan>
                    <tspan x="28.8261719" y="43">RAILROAD</tspan>
                </text>
                <text id="200" font-family="Helvetica" font-size="22" font-weight="normal" fill="#000000">
                    <tspan x="42.1469727" y="187">200</tspan>
                </text>
                <path d="M27.0454545,180.113636 L27.0454545,175 L29.0909091,175 L29.0909091,175.258191 L32.5655869,178.732868 L35.9090909,175.389364 L35.9090909,175 L37.9545455,175 L37.9545455,180.113636 L40,180.113636 L40,182.159091 L37.9545455,182.159091 L37.9545455,187.272727 L35.9090909,187.272727 L35.9090909,182.159091 L29.0909091,182.159091 L29.0909091,187.272727 L27.0454545,187.272727 L27.0454545,182.159091 L25,182.159091 L25,180.113636 L27.0454545,180.113636 Z M29.0909091,180.113636 L31.0536452,180.113636 L29.0909091,178.1509 L29.0909091,180.113636 Z M34.0775285,180.113636 L35.9090909,180.113636 L35.9090909,178.282074 L34.0775285,180.113636 Z" id="Combined-Shape" fill="#000000"></path>
                <path d="M99.2850744,118 C102.724277,120.226981 105,124.097729 105,128.5 C105,135.403559 99.4035594,141 92.5,141 C85.5964406,141 80,135.403559 80,128.5 C80,124.097729 82.2757231,120.226981 85.7149256,118 L59.2850744,118 C62.7242769,120.226981 65,124.097729 65,128.5 C65,135.403559 59.4035594,141 52.5,141 C45.5964406,141 40,135.403559 40,128.5 C40,124.097729 42.2757231,120.226981 45.7149256,118 L40.2873449,118 L34.8523183,141 L11,141 L27.4347623,118 L22.1418919,118 L22.1418919,117.994751 C15.9589528,117.796461 11,112.00467 11,104.888889 C11,97.7731081 15.9589528,91.9813168 22.1418919,91.7830263 L22.1418919,91.7777778 L26.4384384,91.7777778 L19.7023273,67.5222222 L19.5202703,67.5222222 L19.5202703,65.0261211 L19.6463625,65.1522422 L25.6711034,59.1261211 L25.5450112,59 L36.686903,59 L36.5608108,59.1261211 L42.4594595,65.0261211 L42.4594595,67.5222222 L42.2774024,67.5222222 L35.5412913,91.7777778 L85.7162162,91.7777778 L85.7162162,91.7679954 C85.6075128,91.7744967 85.4982652,91.7777778 85.3885135,91.7777778 C80.8638834,91.7777778 77.1959459,86.2012356 77.1959459,79.3222222 C77.1959459,72.4432088 80.8638834,66.8666667 85.3885135,66.8666667 C85.4982652,66.8666667 85.6075128,66.8699478 85.7162162,66.876449 L85.7162162,66.8666667 L108,66.8666667 L108,73.1153358 C103.612488,77.9736036 100.790541,85.554497 100.790541,94.0722222 C100.790541,102.589947 103.612488,110.170841 108,115.029109 L108,118 L106.033784,118 L99.2850744,118 Z" id="Combined-Shape" fill="#000000"></path>
            </g>
        </g>
    </g>
</svg>