<?xml version="1.0" encoding="UTF-8"?>
<svg width="200px" height="200px" viewBox="0 0 200 200" version="1.1" xmlns="http://www.w3.org/2000/svg" xmlns:xlink="http://www.w3.org/1999/xlink">
    <!-- Generator: Sketch 53.2 (72643) - https://sketchapp.com -->
    <title>start tile</title>
    <desc>Created with Sketch.</desc>
    <g id="Page-1" stroke="none" stroke-width="1" fill="none" fill-rule="evenodd">
        <g id="Artboard" transform="translate(-306.000000, -289.000000)">
            <g id="start-tile" transform="translate(306.000000, 289.000000)">
                <rect id="Rectangle" fill="#000000" x="0" y="0" width="200" height="200"></rect>
                <rect id="Rectangle" fill="#C7EAC0" x="5" y="5" width="190" height="190"></rect>
                <path d="M19.1878197,96.6196379 L19.1878197,91.5060016 L21.2332743,91.5060016 L21.2332743,91.7641922 L24.7079521,95.23887 L28.0514561,91.895366 L28.0514561,91.5060016 L30.0969107,91.5060016 L30.0969107,96.6196379 L32.1423652,96.6196379 L32.1423652,98.6650925 L30.0969107,98.6650925 L30.0969107,103.778729 L28.0514561,103.778729 L28.0514561,98.6650925 L21.2332743,98.6650925 L21.2332743,103.778729 L19.1878197,103.778729 L19.1878197,98.6650925 L17.1423652,98.6650925 L17.1423652,96.6196379 L19.1878197,96.6196379 Z M21.2332743,96.6196379 L23.1960104,96.6196379 L21.2332743,94.6569018 L21.2332743,96.6196379 Z M26.2198937,96.6196379 L28.0514561,96.6196379 L28.0514561,94.7880755 L26.2198937,96.6196379 Z" id="Combined-Shape" fill="#000000" transform="translate(24.642365, 97.642365) rotate(-45.000000) translate(-24.642365, -97.642365) "></path>
                <text id="COLLECT" transform="translate(47.729708, 47.729708) rotate(-45.000000) translate(-47.729708, -47.729708) " font-family="Helvetica" font-size="17" font-weight="normal" fill="#000000">
                    <tspan x="8.52511789" y="53.7297077">COLLECT</tspan>
                </text>
                <text id="200-SALARY-AS-YOU-PA" transform="translate(82.589358, 81.589358) rotate(-45.000000) translate(-82.589358, -81.589358) " font-family="Helvetica" font-size="17" font-weight="normal" fill="#000000">
                    <tspan x="25.716555" y="58.0893578">   200 SALARY </tspan>
                    <tspan x="26.2063011" y="78.0893578">AS YOU PASS</tspan>
                </text>
                <path d="M111.114484,74.0373196 L158.114484,74.0373196 L158.114484,136.03732 L111.114484,136.03732 L111.114484,74.0373196 Z M120.028277,85.8800162 L120.028277,124.891252 L149.200691,124.891252 L149.200691,85.8800162 L120.028277,85.8800162 Z M65.684293,98.419342 L65.684293,122.801365 L65.684293,123.497994 L94.046362,123.497994 L94.046362,110.958668 L71.3567068,110.958668 L71.3567068,98.419342 L102.960155,98.419342 L102.960155,136.03732 L55.9601551,136.03732 L55.9601551,74.0373196 L102.960155,74.0373196 L102.960155,85.8800162 L65.684293,85.8800162 L65.684293,98.419342 Z" id="Combined-Shape" fill="#000000" transform="translate(107.037320, 105.037320) rotate(-45.000000) translate(-107.037320, -105.037320) "></path>
                <path d="M177,158 L148,174 L177,190 L142,190 L127.5,182 L53,182 L53,190 L24,174 L53,158 L53,167 L125.6875,167 L142,158 L177,158 Z" id="Combined-Shape" fill="#FF0000"></path>
            </g>
        </g>
    </g>
</svg>