<?xml version="1.0" encoding="UTF-8"?>
<svg width="120px" height="200px" viewBox="0 0 120 200" version="1.1" xmlns="http://www.w3.org/2000/svg" xmlns:xlink="http://www.w3.org/1999/xlink">
    <!-- Generator: Sketch 53.2 (72643) - https://sketchapp.com -->
    <title>water works</title>
    <desc>Created with Sketch.</desc>
    <g id="Page-1" stroke="none" stroke-width="1" fill="none" fill-rule="evenodd">
        <g id="utilities" transform="translate(-24.000000, -25.000000)">
            <g id="water-works" transform="translate(24.000000, 25.000000)">
                <rect id="Rectangle" fill="#000000" x="0" y="0" width="120" height="200"></rect>
                <rect id="Rectangle" fill="#C7EAC0" x="5" y="5" width="110" height="190"></rect>
                <text id="WATER-WORKS" font-family="Helvetica" font-size="12" font-weight="normal" fill="#000000">
                    <tspan x="37.3300781" y="29"> WATER </tspan>
                    <tspan x="37.3330078" y="43">WORKS</tspan>
                </text>
                <text id="150" font-family="Helvetica" font-size="22" font-weight="normal" fill="#000000">
                    <tspan x="42.1469727" y="187">150</tspan>
                </text>
                <path d="M27.0454545,180.113636 L27.0454545,175 L29.0909091,175 L29.0909091,175.258191 L32.5655869,178.732868 L35.9090909,175.389364 L35.9090909,175 L37.9545455,175 L37.9545455,180.113636 L40,180.113636 L40,182.159091 L37.9545455,182.159091 L37.9545455,187.272727 L35.9090909,187.272727 L35.9090909,182.159091 L29.0909091,182.159091 L29.0909091,187.272727 L27.0454545,187.272727 L27.0454545,182.159091 L25,182.159091 L25,180.113636 L27.0454545,180.113636 Z M29.0909091,180.113636 L31.0536452,180.113636 L29.0909091,178.1509 L29.0909091,180.113636 Z M34.0775285,180.113636 L35.9090909,180.113636 L35.9090909,178.282074 L34.0775285,180.113636 Z" id="Combined-Shape" fill="#000000"></path>
                <path d="M75.5351288,82 L65.4648712,82 C65.1135926,82.607256 64.607256,83.1135926 64,83.4648712 L64,87.173274 C67.4504544,87.7838329 70,89.9372208 70,92.5 C70,92.6685448 69.9889726,92.835319 69.9673869,93 L83.9324423,93 C85.5242394,85.3214501 88.9859216,80 93,80 C98.5228475,80 103,90.0735931 103,102.5 C103,106.020453 102.640658,109.352066 102,112.319282 L102,114 L101.596944,114 C99.8526404,120.587158 96.655359,125 93,125 C89.344641,125 86.1473596,120.587158 84.403056,114 L48,114 L48,114.333333 C42.9292309,114.333333 38.7399705,118.107521 38.0881142,123 L18,123 C18,106.431458 31.4314575,93 48,93 L54.0326131,93 C54.0110274,92.835319 54,92.6685448 54,92.5 C54,89.9372208 56.5495456,87.7838329 60,87.173274 L60,83.4648712 C59.392744,83.1135926 58.8864074,82.607256 58.5351288,82 L48.4648712,82 C47.7732524,83.1956027 46.4805647,84 45,84 C42.790861,84 41,82.209139 41,80 C41,77.790861 42.790861,76 45,76 C46.4805647,76 47.7732524,76.8043973 48.4648712,78 L58.5351255,78 C59.2267484,76.8043968 60.5194357,76 62,76 C63.4805643,76 64.7732516,76.8043968 65.4648706,77.9999989 L75.5351288,78 C76.2267476,76.8043973 77.5194353,76 79,76 C81.209139,76 83,77.790861 83,80 C83,82.209139 81.209139,84 79,84 C77.5194353,84 76.2267476,83.1956027 75.5351288,82 Z" id="Combined-Shape" fill="#767373"></path>
            </g>
        </g>
    </g>
</svg>